<mxfile host="Electron" modified="2023-04-18T10:11:44.344Z" agent="Mozilla/5.0 (Windows NT 10.0; Win64; x64) AppleWebKit/537.36 (KHTML, like Gecko) draw.io/21.1.2 Chrome/106.0.5249.199 Electron/21.4.3 Safari/537.36" etag="bPDteVPXFd-WrXPWU0lc" version="21.1.2" type="device">
  <diagram name="Page-1" id="03018318-947c-dd8e-b7a3-06fadd420f32">
    <mxGraphModel dx="1292" dy="174" grid="1" gridSize="10" guides="1" tooltips="1" connect="1" arrows="1" fold="1" page="1" pageScale="1" pageWidth="1100" pageHeight="850" background="none" math="0" shadow="0">
      <root>
        <mxCell id="0" />
        <mxCell id="1" parent="0" />
        <mxCell id="nvYbezTVS7BWaabWMawG-4" value="" style="strokeWidth=1;shadow=0;dashed=0;align=center;html=1;shape=mxgraph.mockup.containers.browserWindow;rSize=0;strokeColor=default;mainText=,;recursiveResize=0;rounded=0;labelBackgroundColor=none;fontFamily=Verdana;fontSize=12" parent="1" vertex="1">
          <mxGeometry x="10" y="850" width="1080" height="940" as="geometry" />
        </mxCell>
        <mxCell id="nvYbezTVS7BWaabWMawG-5" value="About Us Page" style="strokeWidth=1;shadow=0;dashed=0;align=center;html=1;shape=mxgraph.mockup.containers.anchor;fontSize=17;fontColor=#666666;align=left;" parent="nvYbezTVS7BWaabWMawG-4" vertex="1">
          <mxGeometry x="60" y="12" width="130" height="26" as="geometry" />
        </mxCell>
        <mxCell id="nvYbezTVS7BWaabWMawG-6" value="https://nikozyl.github.io/JXU/aboutuspage" style="strokeWidth=1;shadow=0;dashed=0;align=center;html=1;shape=mxgraph.mockup.containers.anchor;rSize=0;fontSize=17;fontColor=#666666;align=left;" parent="nvYbezTVS7BWaabWMawG-4" vertex="1">
          <mxGeometry x="130" y="60" width="250" height="26" as="geometry" />
        </mxCell>
        <mxCell id="nvYbezTVS7BWaabWMawG-30" value="" style="whiteSpace=wrap;html=1;rounded=0;shadow=0;labelBackgroundColor=none;strokeColor=#000000;strokeWidth=1;fillColor=none;fontFamily=Verdana;fontSize=12;fontColor=#000000;align=center;comic=1;" parent="nvYbezTVS7BWaabWMawG-4" vertex="1">
          <mxGeometry x="10" y="120" width="1060" height="810" as="geometry" />
        </mxCell>
        <mxCell id="nvYbezTVS7BWaabWMawG-31" value="LOGO" style="whiteSpace=wrap;html=1;rounded=0;shadow=0;labelBackgroundColor=none;strokeWidth=1;fontFamily=Verdana;fontSize=28;align=center;comic=1;" parent="nvYbezTVS7BWaabWMawG-4" vertex="1">
          <mxGeometry x="30" y="140" width="90" height="90" as="geometry" />
        </mxCell>
        <mxCell id="nvYbezTVS7BWaabWMawG-32" value="" style="strokeWidth=1;shadow=0;dashed=0;align=center;html=1;shape=mxgraph.mockup.forms.searchBox;strokeColor=#999999;mainText=;strokeColor2=#008cff;fontColor=#666666;fontSize=17;align=left;spacingLeft=3;rounded=0;labelBackgroundColor=none;comic=1;" parent="nvYbezTVS7BWaabWMawG-4" vertex="1">
          <mxGeometry x="830" y="170" width="220" height="30" as="geometry" />
        </mxCell>
        <mxCell id="nvYbezTVS7BWaabWMawG-37" value="" style="whiteSpace=wrap;html=1;rounded=0;shadow=0;labelBackgroundColor=none;strokeWidth=1;fillColor=none;fontFamily=Verdana;fontSize=12;align=center;comic=1;strokeColor=default;" parent="nvYbezTVS7BWaabWMawG-4" vertex="1">
          <mxGeometry x="20" y="520" width="340" height="340" as="geometry" />
        </mxCell>
        <mxCell id="nvYbezTVS7BWaabWMawG-38" value="" style="line;strokeWidth=1;html=1;rounded=0;shadow=0;labelBackgroundColor=none;fillColor=none;fontFamily=Verdana;fontSize=14;fontColor=#000000;align=center;comic=1;" parent="nvYbezTVS7BWaabWMawG-4" vertex="1">
          <mxGeometry x="10" y="240" width="1060" height="10" as="geometry" />
        </mxCell>
        <mxCell id="nvYbezTVS7BWaabWMawG-39" value="" style="whiteSpace=wrap;html=1;rounded=0;shadow=0;labelBackgroundColor=none;strokeWidth=1;fillColor=none;fontFamily=Verdana;fontSize=12;align=center;comic=1;" parent="nvYbezTVS7BWaabWMawG-4" vertex="1">
          <mxGeometry x="20" y="260" width="1040" height="50" as="geometry" />
        </mxCell>
        <mxCell id="nvYbezTVS7BWaabWMawG-40" value="Section 1" style="text;html=1;points=[];align=left;verticalAlign=top;spacingTop=-4;fontSize=14;fontFamily=Verdana" parent="nvYbezTVS7BWaabWMawG-4" vertex="1">
          <mxGeometry x="160" y="275" width="60" height="20" as="geometry" />
        </mxCell>
        <mxCell id="nvYbezTVS7BWaabWMawG-41" value="Section 2" style="text;html=1;points=[];align=left;verticalAlign=top;spacingTop=-4;fontSize=14;fontFamily=Verdana" parent="nvYbezTVS7BWaabWMawG-4" vertex="1">
          <mxGeometry x="320" y="275" width="60" height="20" as="geometry" />
        </mxCell>
        <mxCell id="nvYbezTVS7BWaabWMawG-42" value="Section 3" style="text;html=1;points=[];align=left;verticalAlign=top;spacingTop=-4;fontSize=14;fontFamily=Verdana" parent="nvYbezTVS7BWaabWMawG-4" vertex="1">
          <mxGeometry x="510" y="275" width="60" height="20" as="geometry" />
        </mxCell>
        <mxCell id="nvYbezTVS7BWaabWMawG-43" value="Section 4" style="text;html=1;points=[];align=left;verticalAlign=top;spacingTop=-4;fontSize=14;fontFamily=Verdana" parent="nvYbezTVS7BWaabWMawG-4" vertex="1">
          <mxGeometry x="710" y="275" width="60" height="20" as="geometry" />
        </mxCell>
        <mxCell id="nvYbezTVS7BWaabWMawG-45" value="" style="whiteSpace=wrap;html=1;rounded=0;shadow=0;labelBackgroundColor=none;strokeWidth=1;fillColor=none;fontFamily=Verdana;fontSize=12;align=center;comic=1;" parent="nvYbezTVS7BWaabWMawG-4" vertex="1">
          <mxGeometry x="370" y="520" width="340" height="340" as="geometry" />
        </mxCell>
        <mxCell id="nvYbezTVS7BWaabWMawG-46" value="Section 5" style="text;html=1;points=[];align=left;verticalAlign=top;spacingTop=-4;fontSize=14;fontFamily=Verdana" parent="nvYbezTVS7BWaabWMawG-4" vertex="1">
          <mxGeometry x="870" y="275" width="60" height="20" as="geometry" />
        </mxCell>
        <mxCell id="nvYbezTVS7BWaabWMawG-47" value="Footer" style="whiteSpace=wrap;html=1;rounded=0;shadow=0;labelBackgroundColor=none;strokeWidth=1;fillColor=none;fontFamily=Verdana;fontSize=12;align=center;comic=1;" parent="nvYbezTVS7BWaabWMawG-4" vertex="1">
          <mxGeometry x="20" y="870" width="1040" height="50" as="geometry" />
        </mxCell>
        <mxCell id="nvYbezTVS7BWaabWMawG-50" value="&lt;font style=&quot;font-size: 36px;&quot;&gt;About Us&lt;/font&gt;" style="text;strokeColor=none;fillColor=none;html=1;fontSize=16;fontStyle=1;verticalAlign=middle;align=center;" parent="nvYbezTVS7BWaabWMawG-4" vertex="1">
          <mxGeometry x="490" y="165" width="100" height="40" as="geometry" />
        </mxCell>
        <mxCell id="nvYbezTVS7BWaabWMawG-51" style="edgeStyle=none;curved=1;rounded=0;orthogonalLoop=1;jettySize=auto;html=1;exitX=1;exitY=0.5;exitDx=0;exitDy=0;fontSize=12;startSize=8;endSize=8;" parent="nvYbezTVS7BWaabWMawG-4" source="nvYbezTVS7BWaabWMawG-31" target="nvYbezTVS7BWaabWMawG-31" edge="1">
          <mxGeometry relative="1" as="geometry" />
        </mxCell>
        <mxCell id="x-W4oxdiGgVIEA67tUuT-21" value="" style="whiteSpace=wrap;html=1;rounded=0;shadow=0;labelBackgroundColor=none;strokeWidth=1;fillColor=none;fontFamily=Verdana;fontSize=12;align=center;comic=1;" vertex="1" parent="nvYbezTVS7BWaabWMawG-4">
          <mxGeometry x="20" y="320" width="1040" height="190" as="geometry" />
        </mxCell>
        <mxCell id="x-W4oxdiGgVIEA67tUuT-22" value="" style="whiteSpace=wrap;html=1;rounded=0;shadow=0;labelBackgroundColor=none;strokeWidth=1;fillColor=none;fontFamily=Verdana;fontSize=12;align=center;comic=1;" vertex="1" parent="nvYbezTVS7BWaabWMawG-4">
          <mxGeometry x="720" y="520" width="340" height="340" as="geometry" />
        </mxCell>
      </root>
    </mxGraphModel>
  </diagram>
</mxfile>
